<svg xmlns="http://www.w3.org/2000/svg" width="860" height="460" viewBox="0 0 860 460">
<rect width="100%" height="100%" fill="#ffffff"/>
<text x="430.0" y="30" text-anchor="middle" font-family="Arial" font-size="18" fill="#1f2933">MRV consistency-review consensus score distribution</text>
<text x="430.0" y="444" text-anchor="middle" font-family="Arial" font-size="12" fill="#52606d">consensus score</text>
<text x="18" y="228.0" transform="rotate(-90 18 228.0)" text-anchor="middle" font-family="Arial" font-size="12" fill="#52606d">rows</text>
<line x1="72" y1="398" x2="832" y2="398" stroke="#9aa5b1" stroke-width="1"/>
<line x1="72" y1="58" x2="72" y2="398" stroke="#9aa5b1" stroke-width="1"/>
<line x1="68" y1="398.00" x2="832" y2="398.00" stroke="#e4e7eb" stroke-width="1"/>
<text x="64" y="402.00" text-anchor="end" font-family="Arial" font-size="11" fill="#52606d">0</text>
<line x1="68" y1="330.00" x2="832" y2="330.00" stroke="#e4e7eb" stroke-width="1"/>
<text x="64" y="334.00" text-anchor="end" font-family="Arial" font-size="11" fill="#52606d">1013</text>
<line x1="68" y1="262.00" x2="832" y2="262.00" stroke="#e4e7eb" stroke-width="1"/>
<text x="64" y="266.00" text-anchor="end" font-family="Arial" font-size="11" fill="#52606d">2026</text>
<line x1="68" y1="194.00" x2="832" y2="194.00" stroke="#e4e7eb" stroke-width="1"/>
<text x="64" y="198.00" text-anchor="end" font-family="Arial" font-size="11" fill="#52606d">3038</text>
<line x1="68" y1="126.00" x2="832" y2="126.00" stroke="#e4e7eb" stroke-width="1"/>
<text x="64" y="130.00" text-anchor="end" font-family="Arial" font-size="11" fill="#52606d">4051</text>
<line x1="68" y1="58.00" x2="832" y2="58.00" stroke="#e4e7eb" stroke-width="1"/>
<text x="64" y="62.00" text-anchor="end" font-family="Arial" font-size="11" fill="#52606d">5064</text>
<rect x="72.00" y="396.12" width="23.40" height="1.88" fill="#2f6f73"/>
<rect x="97.40" y="382.22" width="23.40" height="15.78" fill="#2f6f73"/>
<rect x="122.80" y="359.66" width="23.40" height="38.34" fill="#2f6f73"/>
<rect x="148.20" y="323.54" width="23.40" height="74.46" fill="#2f6f73"/>
<rect x="173.60" y="289.70" width="23.40" height="108.30" fill="#2f6f73"/>
<rect x="199.00" y="251.50" width="23.40" height="146.50" fill="#2f6f73"/>
<rect x="224.40" y="204.57" width="23.40" height="193.43" fill="#2f6f73"/>
<rect x="249.80" y="165.42" width="23.40" height="232.58" fill="#2f6f73"/>
<rect x="275.20" y="124.54" width="23.40" height="273.46" fill="#2f6f73"/>
<rect x="300.60" y="100.57" width="23.40" height="297.43" fill="#2f6f73"/>
<rect x="326.00" y="80.22" width="23.40" height="317.78" fill="#2f6f73"/>
<rect x="351.40" y="65.12" width="23.40" height="332.88" fill="#2f6f73"/>
<rect x="376.80" y="58.00" width="23.40" height="340.00" fill="#2f6f73"/>
<rect x="402.20" y="58.87" width="23.40" height="339.13" fill="#2f6f73"/>
<rect x="427.60" y="67.06" width="23.40" height="330.94" fill="#2f6f73"/>
<rect x="453.00" y="79.62" width="23.40" height="318.38" fill="#2f6f73"/>
<rect x="478.40" y="102.38" width="23.40" height="295.62" fill="#2f6f73"/>
<rect x="503.80" y="109.09" width="23.40" height="288.91" fill="#2f6f73"/>
<rect x="529.20" y="131.25" width="23.40" height="266.75" fill="#2f6f73"/>
<rect x="554.60" y="155.42" width="23.40" height="242.58" fill="#2f6f73"/>
<rect x="580.00" y="178.79" width="23.40" height="219.21" fill="#2f6f73"/>
<rect x="605.40" y="204.70" width="23.40" height="193.30" fill="#2f6f73"/>
<rect x="630.80" y="223.84" width="23.40" height="174.16" fill="#2f6f73"/>
<rect x="656.20" y="242.30" width="23.40" height="155.70" fill="#2f6f73"/>
<rect x="681.60" y="264.46" width="23.40" height="133.54" fill="#2f6f73"/>
<rect x="707.00" y="275.80" width="23.40" height="122.20" fill="#2f6f73"/>
<rect x="732.40" y="295.27" width="23.40" height="102.73" fill="#2f6f73"/>
<rect x="757.80" y="310.38" width="23.40" height="87.62" fill="#2f6f73"/>
<rect x="783.20" y="326.09" width="23.40" height="71.91" fill="#2f6f73"/>
<rect x="808.60" y="343.95" width="23.40" height="54.05" fill="#2f6f73"/>
<text x="72.00" y="416" text-anchor="middle" font-family="Arial" font-size="11" fill="#52606d">0.0</text>
<text x="224.00" y="416" text-anchor="middle" font-family="Arial" font-size="11" fill="#52606d">0.2</text>
<text x="376.00" y="416" text-anchor="middle" font-family="Arial" font-size="11" fill="#52606d">0.4</text>
<text x="528.00" y="416" text-anchor="middle" font-family="Arial" font-size="11" fill="#52606d">0.6</text>
<text x="680.00" y="416" text-anchor="middle" font-family="Arial" font-size="11" fill="#52606d">0.8</text>
<text x="832.00" y="416" text-anchor="middle" font-family="Arial" font-size="11" fill="#52606d">1.0</text>
</svg>