<svg xmlns="http://www.w3.org/2000/svg" width="860" height="460" viewBox="0 0 860 460">
<rect width="100%" height="100%" fill="#ffffff"/>
<text x="430.0" y="28" text-anchor="middle" font-family="Arial" font-size="18" fill="#1f2933">Rows by reporting year</text>
<text x="18" y="202.0" transform="rotate(-90 18 202.0)" text-anchor="middle" font-family="Arial" font-size="12" fill="#52606d">Rows</text>
<line x1="78" y1="350" x2="834" y2="350" stroke="#9aa5b1" stroke-width="1"/>
<line x1="78" y1="54" x2="78" y2="350" stroke="#9aa5b1" stroke-width="1"/>
<line x1="74" y1="350.00" x2="834" y2="350.00" stroke="#e4e7eb" stroke-width="1"/>
<text x="70" y="354.00" text-anchor="end" font-family="Arial" font-size="11" fill="#52606d">0.0</text>
<line x1="74" y1="276.00" x2="834" y2="276.00" stroke="#e4e7eb" stroke-width="1"/>
<text x="70" y="280.00" text-anchor="end" font-family="Arial" font-size="11" fill="#52606d">4k</text>
<line x1="74" y1="202.00" x2="834" y2="202.00" stroke="#e4e7eb" stroke-width="1"/>
<text x="70" y="206.00" text-anchor="end" font-family="Arial" font-size="11" fill="#52606d">8k</text>
<line x1="74" y1="128.00" x2="834" y2="128.00" stroke="#e4e7eb" stroke-width="1"/>
<text x="70" y="132.00" text-anchor="end" font-family="Arial" font-size="11" fill="#52606d">11k</text>
<line x1="74" y1="54.00" x2="834" y2="54.00" stroke="#e4e7eb" stroke-width="1"/>
<text x="70" y="58.00" text-anchor="end" font-family="Arial" font-size="11" fill="#52606d">15k</text>
<rect x="78.00" y="110.70" width="102.86" height="239.30" fill="#2f6f73"/>
<text x="129.43" y="368.00" text-anchor="middle" font-family="Arial" font-size="10" fill="#323f4b">2018</text>
<rect x="186.86" y="107.58" width="102.86" height="242.42" fill="#8f5f2a"/>
<text x="238.29" y="368.00" text-anchor="middle" font-family="Arial" font-size="10" fill="#323f4b">2019</text>
<rect x="295.71" y="113.53" width="102.86" height="236.47" fill="#4f6f9f"/>
<text x="347.14" y="368.00" text-anchor="middle" font-family="Arial" font-size="10" fill="#323f4b">2020</text>
<rect x="404.57" y="106.35" width="102.86" height="243.65" fill="#a64d4d"/>
<text x="456.00" y="368.00" text-anchor="middle" font-family="Arial" font-size="10" fill="#323f4b">2021</text>
<rect x="513.43" y="87.01" width="102.86" height="262.99" fill="#5e6c84"/>
<text x="564.86" y="368.00" text-anchor="middle" font-family="Arial" font-size="10" fill="#323f4b">2022</text>
<rect x="622.29" y="99.62" width="102.86" height="250.38" fill="#2f6f73"/>
<text x="673.71" y="368.00" text-anchor="middle" font-family="Arial" font-size="10" fill="#323f4b">2023</text>
<rect x="731.14" y="54.00" width="102.86" height="296.00" fill="#8f5f2a"/>
<text x="782.57" y="368.00" text-anchor="middle" font-family="Arial" font-size="10" fill="#323f4b">2024</text>
</svg>