<svg xmlns="http://www.w3.org/2000/svg" width="920" height="520" viewBox="0 0 920 520">
<rect width="100%" height="100%" fill="#ffffff"/>
<text x="460.0" y="28" text-anchor="middle" font-family="Arial" font-size="18" fill="#1f2933">Top ship types</text>
<text x="18" y="232.0" transform="rotate(-90 18 232.0)" text-anchor="middle" font-family="Arial" font-size="12" fill="#52606d">Rows</text>
<line x1="78" y1="410" x2="894" y2="410" stroke="#9aa5b1" stroke-width="1"/>
<line x1="78" y1="54" x2="78" y2="410" stroke="#9aa5b1" stroke-width="1"/>
<line x1="74" y1="410.00" x2="894" y2="410.00" stroke="#e4e7eb" stroke-width="1"/>
<text x="70" y="414.00" text-anchor="end" font-family="Arial" font-size="11" fill="#52606d">0.0</text>
<line x1="74" y1="321.00" x2="894" y2="321.00" stroke="#e4e7eb" stroke-width="1"/>
<text x="70" y="325.00" text-anchor="end" font-family="Arial" font-size="11" fill="#52606d">7k</text>
<line x1="74" y1="232.00" x2="894" y2="232.00" stroke="#e4e7eb" stroke-width="1"/>
<text x="70" y="236.00" text-anchor="end" font-family="Arial" font-size="11" fill="#52606d">14k</text>
<line x1="74" y1="143.00" x2="894" y2="143.00" stroke="#e4e7eb" stroke-width="1"/>
<text x="70" y="147.00" text-anchor="end" font-family="Arial" font-size="11" fill="#52606d">21k</text>
<line x1="74" y1="54.00" x2="894" y2="54.00" stroke="#e4e7eb" stroke-width="1"/>
<text x="70" y="58.00" text-anchor="end" font-family="Arial" font-size="11" fill="#52606d">28k</text>
<rect x="78.00" y="54.00" width="76.20" height="356.00" fill="#2f6f73"/>
<text x="116.10" y="428.00" text-anchor="middle" font-family="Arial" font-size="10" fill="#323f4b">Bulk carrier</text>
<rect x="160.20" y="232.29" width="76.20" height="177.71" fill="#8f5f2a"/>
<text x="198.30" y="428.00" text-anchor="middle" font-family="Arial" font-size="10" fill="#323f4b">Oil tanker</text>
<rect x="242.40" y="236.88" width="76.20" height="173.12" fill="#4f6f9f"/>
<text x="280.50" y="428.00" text-anchor="middle" font-family="Arial" font-size="10" fill="#323f4b">Container ship</text>
<rect x="324.60" y="283.29" width="76.20" height="126.71" fill="#a64d4d"/>
<text x="362.70" y="428.00" text-anchor="middle" font-family="Arial" font-size="10" fill="#323f4b">Chemical tanker</text>
<rect x="406.80" y="296.45" width="76.20" height="113.55" fill="#5e6c84"/>
<text x="444.90" y="428.00" text-anchor="middle" font-family="Arial" font-size="10" fill="#323f4b">General cargo ship</text>
<rect x="489.00" y="368.48" width="76.20" height="41.52" fill="#2f6f73"/>
<text x="527.10" y="428.00" text-anchor="middle" font-family="Arial" font-size="10" fill="#323f4b">Vehicle carrier</text>
<rect x="571.20" y="373.59" width="76.20" height="36.41" fill="#8f5f2a"/>
<text x="609.30" y="428.00" text-anchor="middle" font-family="Arial" font-size="10" fill="#323f4b">Ro-pax ship</text>
<rect x="653.40" y="378.29" width="76.20" height="31.71" fill="#4f6f9f"/>
<text x="691.50" y="428.00" text-anchor="middle" font-family="Arial" font-size="10" fill="#323f4b">Gas carrier</text>
<rect x="735.60" y="381.99" width="76.20" height="28.01" fill="#a64d4d"/>
<text x="773.70" y="428.00" text-anchor="middle" font-family="Arial" font-size="10" fill="#323f4b">LNG carrier</text>
<rect x="817.80" y="387.89" width="76.20" height="22.11" fill="#5e6c84"/>
<text x="855.90" y="428.00" text-anchor="middle" font-family="Arial" font-size="10" fill="#323f4b">Ro-ro ship</text>
</svg>