<svg xmlns="http://www.w3.org/2000/svg" width="860" height="480" viewBox="0 0 860 480">
<rect width="100%" height="100%" fill="#ffffff"/>
<text x="430.0" y="30" text-anchor="middle" font-family="Arial" font-size="18" fill="#1f2933">Consistency-review sensitivity across contamination thresholds</text>
<text x="18" y="228.0" transform="rotate(-90 18 228.0)" text-anchor="middle" font-family="Arial" font-size="12" fill="#52606d">candidate rows</text>
<line x1="80" y1="398" x2="832" y2="398" stroke="#9aa5b1" stroke-width="1"/>
<line x1="80" y1="58" x2="80" y2="398" stroke="#9aa5b1" stroke-width="1"/>
<line x1="76" y1="398.00" x2="832" y2="398.00" stroke="#e4e7eb" stroke-width="1"/>
<text x="72" y="402.00" text-anchor="end" font-family="Arial" font-size="11" fill="#52606d">0</text>
<line x1="76" y1="330.00" x2="832" y2="330.00" stroke="#e4e7eb" stroke-width="1"/>
<text x="72" y="334.00" text-anchor="end" font-family="Arial" font-size="11" fill="#52606d">2217</text>
<line x1="76" y1="262.00" x2="832" y2="262.00" stroke="#e4e7eb" stroke-width="1"/>
<text x="72" y="266.00" text-anchor="end" font-family="Arial" font-size="11" fill="#52606d">4434</text>
<line x1="76" y1="194.00" x2="832" y2="194.00" stroke="#e4e7eb" stroke-width="1"/>
<text x="72" y="198.00" text-anchor="end" font-family="Arial" font-size="11" fill="#52606d">6652</text>
<line x1="76" y1="126.00" x2="832" y2="126.00" stroke="#e4e7eb" stroke-width="1"/>
<text x="72" y="130.00" text-anchor="end" font-family="Arial" font-size="11" fill="#52606d">8869</text>
<line x1="76" y1="58.00" x2="832" y2="58.00" stroke="#e4e7eb" stroke-width="1"/>
<text x="72" y="62.00" text-anchor="end" font-family="Arial" font-size="11" fill="#52606d">11086</text>
<rect x="124.33" y="395.03" width="50.00" height="2.97" fill="#2f6f73"/>
<text x="149.33" y="390.03" text-anchor="middle" font-family="Arial" font-size="10" fill="#323f4b">97</text>
<rect x="178.33" y="383.06" width="50.00" height="14.94" fill="#8f5f2a"/>
<text x="203.33" y="378.06" text-anchor="middle" font-family="Arial" font-size="10" fill="#323f4b">487</text>
<rect x="232.33" y="336.32" width="50.00" height="61.68" fill="#4f6f9f"/>
<text x="257.33" y="331.32" text-anchor="middle" font-family="Arial" font-size="10" fill="#323f4b">2011</text>
<text x="205.33" y="420" text-anchor="middle" font-family="Arial" font-size="12" fill="#323f4b">1.00%</text>
<rect x="375.00" y="391.07" width="50.00" height="6.93" fill="#2f6f73"/>
<text x="400.00" y="386.07" text-anchor="middle" font-family="Arial" font-size="10" fill="#323f4b">226</text>
<rect x="429.00" y="365.28" width="50.00" height="32.72" fill="#8f5f2a"/>
<text x="454.00" y="360.28" text-anchor="middle" font-family="Arial" font-size="10" fill="#323f4b">1067</text>
<rect x="483.00" y="278.76" width="50.00" height="119.24" fill="#4f6f9f"/>
<text x="508.00" y="273.76" text-anchor="middle" font-family="Arial" font-size="10" fill="#323f4b">3888</text>
<text x="456.00" y="420" text-anchor="middle" font-family="Arial" font-size="12" fill="#323f4b">2.00%</text>
<rect x="625.67" y="378.28" width="50.00" height="19.72" fill="#2f6f73"/>
<text x="650.67" y="373.28" text-anchor="middle" font-family="Arial" font-size="10" fill="#323f4b">643</text>
<rect x="679.67" y="317.46" width="50.00" height="80.54" fill="#8f5f2a"/>
<text x="704.67" y="312.46" text-anchor="middle" font-family="Arial" font-size="10" fill="#323f4b">2626</text>
<rect x="733.67" y="102.35" width="50.00" height="295.65" fill="#4f6f9f"/>
<text x="758.67" y="97.35" text-anchor="middle" font-family="Arial" font-size="10" fill="#323f4b">9640</text>
<text x="706.67" y="420" text-anchor="middle" font-family="Arial" font-size="12" fill="#323f4b">5.00%</text>
<rect x="80" y="446" width="12" height="12" fill="#2f6f73"/>
<text x="98" y="456" font-family="Arial" font-size="11" fill="#323f4b">all three methods</text>
<rect x="290" y="446" width="12" height="12" fill="#8f5f2a"/>
<text x="308" y="456" font-family="Arial" font-size="11" fill="#323f4b">at least two methods</text>
<rect x="500" y="446" width="12" height="12" fill="#4f6f9f"/>
<text x="518" y="456" font-family="Arial" font-size="11" fill="#323f4b">any method</text>
</svg>