<svg xmlns="http://www.w3.org/2000/svg" width="980" height="500" viewBox="0 0 980 500">
<rect width="100%" height="100%" fill="#ffffff"/>
<text x="490.0" y="28" text-anchor="middle" font-family="Arial" font-size="18" fill="#1f2933">Temporal test Macro-F1</text>
<text x="18" y="202.0" transform="rotate(-90 18 202.0)" text-anchor="middle" font-family="Arial" font-size="12" fill="#52606d">macro f1</text>
<line x1="72" y1="350" x2="956" y2="350" stroke="#9aa5b1" stroke-width="1"/>
<line x1="72" y1="54" x2="72" y2="350" stroke="#9aa5b1" stroke-width="1"/>
<line x1="68" y1="350.00" x2="956" y2="350.00" stroke="#e4e7eb" stroke-width="1"/>
<text x="64" y="354.00" text-anchor="end" font-family="Arial" font-size="11" fill="#52606d">0.00</text>
<line x1="68" y1="290.80" x2="956" y2="290.80" stroke="#e4e7eb" stroke-width="1"/>
<text x="64" y="294.80" text-anchor="end" font-family="Arial" font-size="11" fill="#52606d">0.14</text>
<line x1="68" y1="231.60" x2="956" y2="231.60" stroke="#e4e7eb" stroke-width="1"/>
<text x="64" y="235.60" text-anchor="end" font-family="Arial" font-size="11" fill="#52606d">0.27</text>
<line x1="68" y1="172.40" x2="956" y2="172.40" stroke="#e4e7eb" stroke-width="1"/>
<text x="64" y="176.40" text-anchor="end" font-family="Arial" font-size="11" fill="#52606d">0.41</text>
<line x1="68" y1="113.20" x2="956" y2="113.20" stroke="#e4e7eb" stroke-width="1"/>
<text x="64" y="117.20" text-anchor="end" font-family="Arial" font-size="11" fill="#52606d">0.54</text>
<line x1="68" y1="54.00" x2="956" y2="54.00" stroke="#e4e7eb" stroke-width="1"/>
<text x="64" y="58.00" text-anchor="end" font-family="Arial" font-size="11" fill="#52606d">0.68</text>
<rect x="72.00" y="85.71" width="140.67" height="264.29" fill="#2f6f73"/>
<text x="142.33" y="80.71" text-anchor="middle" font-family="Arial" font-size="10" fill="#323f4b">0.603</text>
<text x="142.33" y="368.00" transform="rotate(55 142.33 368.00)" text-anchor="start" font-family="Arial" font-size="9" fill="#323f4b">temporal | operational no emissio…</text>
<rect x="220.67" y="167.08" width="140.67" height="182.92" fill="#8f5f2a"/>
<text x="291.00" y="162.08" text-anchor="middle" font-family="Arial" font-size="10" fill="#323f4b">0.417</text>
<text x="291.00" y="368.00" transform="rotate(55 291.00 368.00)" text-anchor="start" font-family="Arial" font-size="9" fill="#323f4b">temporal | operational no emissio…</text>
<rect x="369.33" y="104.84" width="140.67" height="245.16" fill="#4f6f9f"/>
<text x="439.67" y="99.84" text-anchor="middle" font-family="Arial" font-size="10" fill="#323f4b">0.560</text>
<text x="439.67" y="368.00" transform="rotate(55 439.67 368.00)" text-anchor="start" font-family="Arial" font-size="9" fill="#323f4b">temporal | operational no emissio…</text>
<rect x="518.00" y="86.48" width="140.67" height="263.52" fill="#a64d4d"/>
<text x="588.33" y="81.48" text-anchor="middle" font-family="Arial" font-size="10" fill="#323f4b">0.601</text>
<text x="588.33" y="368.00" transform="rotate(55 588.33 368.00)" text-anchor="start" font-family="Arial" font-size="9" fill="#323f4b">temporal | strict static | hist g…</text>
<rect x="666.67" y="166.76" width="140.67" height="183.24" fill="#5e6c84"/>
<text x="737.00" y="161.76" text-anchor="middle" font-family="Arial" font-size="10" fill="#323f4b">0.418</text>
<text x="737.00" y="368.00" transform="rotate(55 737.00 368.00)" text-anchor="start" font-family="Arial" font-size="9" fill="#323f4b">temporal | strict static | logist…</text>
<rect x="815.33" y="106.58" width="140.67" height="243.42" fill="#6f5e9c"/>
<text x="885.67" y="101.58" text-anchor="middle" font-family="Arial" font-size="10" fill="#323f4b">0.556</text>
<text x="885.67" y="368.00" transform="rotate(55 885.67 368.00)" text-anchor="start" font-family="Arial" font-size="9" fill="#323f4b">temporal | strict static | random…</text>
</svg>