<svg xmlns="http://www.w3.org/2000/svg" width="520" height="430" viewBox="0 0 520 430">
<rect width="100%" height="100%" fill="#ffffff"/>
<text x="260.0" y="30" text-anchor="middle" font-family="Arial" font-size="16" fill="#1f2933">Best temporal test confusion matrix: operational_no_emission / hist_gradient_boosting</text>
<text x="312.0" y="64" text-anchor="middle" font-family="Arial" font-size="12" fill="#52606d">Predicted</text>
<text x="28" y="220.0" transform="rotate(-90 28 220.0)" text-anchor="middle" font-family="Arial" font-size="12" fill="#52606d">Actual</text>
<text x="224.0" y="76" text-anchor="middle" font-family="Arial" font-size="11" fill="#323f4b">efficient</text>
<text x="168" y="136.0" text-anchor="end" font-family="Arial" font-size="11" fill="#323f4b">efficient</text>
<text x="312.0" y="76" text-anchor="middle" font-family="Arial" font-size="11" fill="#323f4b">medium</text>
<text x="168" y="224.0" text-anchor="end" font-family="Arial" font-size="11" fill="#323f4b">medium</text>
<text x="400.0" y="76" text-anchor="middle" font-family="Arial" font-size="11" fill="#323f4b">inefficient</text>
<text x="168" y="312.0" text-anchor="end" font-family="Arial" font-size="11" fill="#323f4b">inefficient</text>
<rect x="180" y="88" width="88" height="88" fill="#2f6f73" stroke="#ffffff" stroke-width="2"/>
<text x="224.0" y="137.0" text-anchor="middle" font-family="Arial" font-size="18" fill="#1f2933">3137</text>
<rect x="268" y="88" width="88" height="88" fill="#bad2d3" stroke="#ffffff" stroke-width="2"/>
<text x="312.0" y="137.0" text-anchor="middle" font-family="Arial" font-size="18" fill="#1f2933">845</text>
<rect x="356" y="88" width="88" height="88" fill="#dfeded" stroke="#ffffff" stroke-width="2"/>
<text x="400.0" y="137.0" text-anchor="middle" font-family="Arial" font-size="18" fill="#1f2933">228</text>
<rect x="180" y="176" width="88" height="88" fill="#a2c1c3" stroke="#ffffff" stroke-width="2"/>
<text x="224.0" y="225.0" text-anchor="middle" font-family="Arial" font-size="18" fill="#1f2933">1242</text>
<rect x="268" y="176" width="88" height="88" fill="#729fa1" stroke="#ffffff" stroke-width="2"/>
<text x="312.0" y="225.0" text-anchor="middle" font-family="Arial" font-size="18" fill="#1f2933">2039</text>
<rect x="356" y="176" width="88" height="88" fill="#b5cfd0" stroke="#ffffff" stroke-width="2"/>
<text x="400.0" y="225.0" text-anchor="middle" font-family="Arial" font-size="18" fill="#1f2933">923</text>
<rect x="180" y="264" width="88" height="88" fill="#d2e3e4" stroke="#ffffff" stroke-width="2"/>
<text x="224.0" y="313.0" text-anchor="middle" font-family="Arial" font-size="18" fill="#1f2933">454</text>
<rect x="268" y="264" width="88" height="88" fill="#9fbfc1" stroke="#ffffff" stroke-width="2"/>
<text x="312.0" y="313.0" text-anchor="middle" font-family="Arial" font-size="18" fill="#1f2933">1291</text>
<rect x="356" y="264" width="88" height="88" fill="#588d90" stroke="#ffffff" stroke-width="2"/>
<text x="400.0" y="313.0" text-anchor="middle" font-family="Arial" font-size="18" fill="#1f2933">2456</text>
</svg>