<svg xmlns="http://www.w3.org/2000/svg" width="860" height="460" viewBox="0 0 860 460">
<rect width="100%" height="100%" fill="#ffffff"/>
<text x="430.0" y="28" text-anchor="middle" font-family="Arial" font-size="18" fill="#1f2933">Label coverage by reporting year</text>
<text x="18" y="202.0" transform="rotate(-90 18 202.0)" text-anchor="middle" font-family="Arial" font-size="12" fill="#52606d">coverage fraction</text>
<line x1="78" y1="350" x2="834" y2="350" stroke="#9aa5b1" stroke-width="1"/>
<line x1="78" y1="54" x2="78" y2="350" stroke="#9aa5b1" stroke-width="1"/>
<line x1="74" y1="350.00" x2="834" y2="350.00" stroke="#e4e7eb" stroke-width="1"/>
<text x="70" y="354.00" text-anchor="end" font-family="Arial" font-size="11" fill="#52606d">0.0</text>
<line x1="74" y1="276.00" x2="834" y2="276.00" stroke="#e4e7eb" stroke-width="1"/>
<text x="70" y="280.00" text-anchor="end" font-family="Arial" font-size="11" fill="#52606d">0.2</text>
<line x1="74" y1="202.00" x2="834" y2="202.00" stroke="#e4e7eb" stroke-width="1"/>
<text x="70" y="206.00" text-anchor="end" font-family="Arial" font-size="11" fill="#52606d">0.5</text>
<line x1="74" y1="128.00" x2="834" y2="128.00" stroke="#e4e7eb" stroke-width="1"/>
<text x="70" y="132.00" text-anchor="end" font-family="Arial" font-size="11" fill="#52606d">0.7</text>
<line x1="74" y1="54.00" x2="834" y2="54.00" stroke="#e4e7eb" stroke-width="1"/>
<text x="70" y="58.00" text-anchor="end" font-family="Arial" font-size="11" fill="#52606d">1.0</text>
<rect x="78.00" y="64.96" width="121.00" height="285.04" fill="#2f6f73"/>
<text x="138.50" y="368.00" text-anchor="middle" font-family="Arial" font-size="10" fill="#323f4b">2018</text>
<rect x="205.00" y="57.48" width="121.00" height="292.52" fill="#8f5f2a"/>
<text x="265.50" y="368.00" text-anchor="middle" font-family="Arial" font-size="10" fill="#323f4b">2019</text>
<rect x="332.00" y="58.87" width="121.00" height="291.13" fill="#4f6f9f"/>
<text x="392.50" y="368.00" text-anchor="middle" font-family="Arial" font-size="10" fill="#323f4b">2020</text>
<rect x="459.00" y="61.08" width="121.00" height="288.92" fill="#a64d4d"/>
<text x="519.50" y="368.00" text-anchor="middle" font-family="Arial" font-size="10" fill="#323f4b">2021</text>
<rect x="586.00" y="58.47" width="121.00" height="291.53" fill="#5e6c84"/>
<text x="646.50" y="368.00" text-anchor="middle" font-family="Arial" font-size="10" fill="#323f4b">2022</text>
<rect x="713.00" y="54.00" width="121.00" height="296.00" fill="#2f6f73"/>
<text x="773.50" y="368.00" text-anchor="middle" font-family="Arial" font-size="10" fill="#323f4b">2023</text>
</svg>